<svg width="80" height="27" viewBox="0 0 80 27" fill="none" xmlns="http://www.w3.org/2000/svg">
<path d="M18.0239 25.6586H17.5365C17.5365 25.6534 17.5341 25.6483 17.5331 25.6434L17.5197 25.5838C17.5112 25.5446 17.502 25.5057 17.4924 25.4671C17.4883 25.449 17.4839 25.4308 17.4794 25.4127C17.4668 25.3618 17.4534 25.3109 17.4398 25.2601L17.4357 25.2455C17.4206 25.1904 17.4049 25.1355 17.3885 25.0809L17.3721 25.0281C17.3608 24.9905 17.3488 24.9532 17.3379 24.9159C17.3314 24.8955 17.3246 24.8754 17.3181 24.8553C17.3061 24.8194 17.2938 24.7834 17.2812 24.7478C17.2747 24.729 17.2678 24.7098 17.2613 24.6914C17.2454 24.6467 17.229 24.6023 17.2121 24.5582C17.2084 24.5488 17.2053 24.5397 17.2015 24.5303C17.1817 24.4785 17.1609 24.427 17.1397 24.3754C17.1321 24.3566 17.1243 24.3382 17.1164 24.3197C17.1021 24.2873 17.0877 24.2517 17.073 24.218L17.0453 24.1554C17.031 24.123 17.0163 24.0906 17.0012 24.0582C16.992 24.0381 16.9824 24.0177 16.9729 23.9976C16.9554 23.9603 16.9387 23.9234 16.9192 23.8868C16.912 23.8728 16.9055 23.8586 16.8984 23.8443C16.8741 23.7961 16.8491 23.7471 16.8238 23.7005L16.7897 23.6399L16.7415 23.552L16.7039 23.4872C16.6882 23.46 16.6724 23.4328 16.6564 23.4056C16.6437 23.3835 16.6307 23.3615 16.6177 23.3408C16.6 23.3113 16.5836 23.2824 16.5641 23.2533L16.5149 23.1742C16.4916 23.1379 16.4684 23.1013 16.4445 23.0653C16.4294 23.0427 16.4144 23.0203 16.399 22.9979C16.3836 22.9756 16.3669 22.95 16.3505 22.9263C16.3341 22.9027 16.3163 22.879 16.3012 22.8557C16.2862 22.8324 16.2698 22.8113 16.2537 22.7909C16.2377 22.7705 16.2196 22.7432 16.2021 22.7196L16.1539 22.6548C16.1197 22.6117 16.0883 22.5686 16.0548 22.5252L16.008 22.4659C15.9882 22.4409 15.9676 22.4163 15.9475 22.3917L15.9024 22.3372C15.8815 22.3123 15.8603 22.2876 15.8391 22.2627L15.7947 22.2115L15.7284 22.1363L15.6891 22.0929C15.6074 22.0031 15.5237 21.9147 15.4379 21.8285L15.4003 21.7906L15.3217 21.7138L15.283 21.6768C15.2557 21.6506 15.2283 21.6247 15.2007 21.5991L15.1723 21.5731C15.0756 21.484 14.9761 21.3972 14.8749 21.3139L14.8472 21.2909C14.816 21.265 14.7846 21.2394 14.7529 21.2141L14.7215 21.1888C14.6873 21.1629 14.6562 21.1373 14.623 21.1117L14.6063 21.0991C14.4945 21.0135 14.38 20.9302 14.2645 20.8502L14.2484 20.8389C14.2118 20.8139 14.1753 20.7893 14.1384 20.765L14.1141 20.7491C14.0765 20.7241 14.0386 20.6998 14.0006 20.6755L13.9941 20.6717C13.8683 20.5919 13.7402 20.5156 13.6096 20.4426L13.6045 20.4393C13.5631 20.4163 13.5218 20.394 13.4804 20.3716L13.4623 20.3619C13.2422 20.2441 13.0161 20.1361 12.7842 20.0378L12.7698 20.0317C12.7086 20.0058 12.6471 19.9808 12.5849 19.9562H13.8082C14.0075 19.9562 14.1691 19.7387 14.1691 19.4701C14.1691 19.2015 14.0075 18.9841 13.8082 18.9841H13.4438C13.4664 18.9296 13.4913 18.868 13.5183 18.7987C13.8629 18.5952 14.4692 18.1616 15.0708 17.3651L15.0756 17.359C15.1211 17.2994 15.1659 17.2377 15.2099 17.174L15.2188 17.1613C15.2625 17.0988 15.3063 17.0343 15.3493 16.9669L15.361 16.9491C15.3815 16.9167 15.402 16.8843 15.4225 16.8519C15.4225 16.8519 15.4225 16.8493 15.4249 16.8477C15.4461 16.8152 15.4669 16.7796 15.4878 16.7449L15.5011 16.7226C15.5189 16.6928 15.537 16.6623 15.5544 16.6315C15.5578 16.626 15.5613 16.6205 15.5643 16.6147C15.5845 16.5797 15.6047 16.544 15.6245 16.5081L15.6382 16.4831C15.6546 16.4533 15.6706 16.4232 15.6867 16.3927C15.6915 16.3843 15.6963 16.3755 15.7007 16.3668C15.7198 16.3302 15.739 16.2932 15.7581 16.2556L15.7715 16.2294C15.7865 16.1989 15.8019 16.1678 15.8169 16.1367L15.8333 16.1043C15.8518 16.0661 15.8699 16.0272 15.888 15.988L15.8993 15.963C15.9143 15.9306 15.929 15.8982 15.9437 15.8658L15.9612 15.8269C15.9782 15.7877 15.9953 15.7482 16.0117 15.7083C16.0148 15.7012 16.0179 15.6937 16.0206 15.6866C16.036 15.65 16.051 15.6127 16.0661 15.5751L16.0832 15.5324C16.0972 15.4967 16.1112 15.4608 16.1249 15.4248L16.1351 15.3976C16.1512 15.3548 16.1669 15.3111 16.1826 15.268L16.199 15.2219C16.2114 15.1876 16.2233 15.1526 16.2353 15.1176C16.2397 15.1046 16.2442 15.0917 16.2483 15.0787C16.2633 15.034 16.2783 14.9883 16.293 14.9426C16.2978 14.9267 16.303 14.9102 16.3077 14.8953L16.3419 14.7887C16.3464 14.7732 16.3511 14.7563 16.3556 14.7424C16.3696 14.6954 16.3836 14.6474 16.3969 14.5991C16.4014 14.5839 16.4055 14.5684 16.4096 14.5528C16.4198 14.5155 16.4301 14.4783 16.44 14.4404C16.4445 14.4232 16.4489 14.406 16.4537 14.3888C16.4663 14.3389 16.479 14.2887 16.4913 14.2378L16.5015 14.1954C16.5111 14.1549 16.5207 14.114 16.5299 14.0729L16.5422 14.0178C16.5538 13.965 16.5654 13.9122 16.5764 13.8584C16.5788 13.848 16.5808 13.8373 16.5829 13.826C16.5925 13.7796 16.6017 13.7327 16.6106 13.6857C16.6143 13.6666 16.6177 13.6474 16.6215 13.6283C16.6304 13.58 16.6389 13.5311 16.6475 13.4828C16.6492 13.4725 16.6512 13.4624 16.6529 13.4524C16.6625 13.3953 16.6719 13.3379 16.681 13.28C16.6841 13.2605 16.6871 13.2411 16.6899 13.2213C16.697 13.1743 16.7039 13.127 16.7107 13.0791L16.7169 13.035C16.7251 12.9754 16.7329 12.9154 16.7404 12.8545C16.7428 12.8354 16.7449 12.8163 16.7473 12.7968C16.7532 12.7484 16.7587 12.6998 16.7637 12.651C16.7657 12.6335 16.7678 12.6163 16.7695 12.5988C16.7761 12.5362 16.7823 12.473 16.788 12.4093C16.788 12.3915 16.791 12.3736 16.7924 12.3555C16.7968 12.3043 16.8013 12.2528 16.805 12.2009C16.805 12.1818 16.8081 12.1627 16.8095 12.1436C16.8143 12.0775 16.8187 12.0109 16.8228 11.944C16.8228 11.9287 16.8228 11.9115 16.8252 11.8979C16.8283 11.8422 16.8314 11.7861 16.8338 11.7298C16.8338 11.7093 16.8338 11.6889 16.8365 11.6685C16.8392 11.5989 16.842 11.5289 16.844 11.4579C16.844 11.4482 16.844 11.4381 16.844 11.4281C16.8458 11.365 16.8472 11.3013 16.8481 11.2369C16.8481 11.2158 16.8481 11.1948 16.8481 11.1737C16.8481 11.1046 16.8481 11.035 16.8481 10.965V10.9488C16.8481 10.8743 16.8481 10.7988 16.8481 10.722V10.6572C16.8481 10.5924 16.8454 10.5243 16.8437 10.4569V10.4203C16.8413 10.3425 16.8382 10.2638 16.8351 10.1847C16.8351 10.1643 16.8331 10.1436 16.8324 10.1232C16.8294 10.0566 16.826 9.98967 16.8221 9.92227C16.8221 9.90574 16.8221 9.88986 16.8194 9.87204C16.8146 9.79103 16.8094 9.70937 16.8037 9.62707L16.7996 9.56971C16.7945 9.50101 16.7893 9.43199 16.7835 9.36232C16.7835 9.34223 16.7804 9.32214 16.7787 9.30205C16.7716 9.2178 16.7637 9.13258 16.7555 9.04703C16.7555 9.03083 16.7521 9.01463 16.7507 8.9981C16.7435 8.92519 16.7357 8.85164 16.7278 8.77743C16.7254 8.75507 16.723 8.73304 16.7203 8.71068C16.7107 8.62254 16.7005 8.53408 16.6895 8.44432C16.6895 8.4333 16.6864 8.42228 16.6851 8.41191C16.6753 8.33155 16.6649 8.25076 16.654 8.16953C16.6506 8.14555 16.6475 8.12158 16.6441 8.0976C16.6313 8.00557 16.6182 7.91278 16.6048 7.81924C15.2376 -1.40748 5.54905 0.0899114 5.54905 0.0899114L5.8594 2.07239L0 7.94076L0.256004 10.2068L2.47562 11.5029C2.57457 11.2645 2.70161 11.0374 2.85433 10.826C4.28645 9.25993 7.06491 8.03052 7.86026 7.7755C8.01954 7.72463 8.11012 7.69903 8.11012 7.69903C4.3056 12.3672 4.73831 17.7151 4.90784 18.9899C4.73147 19.0223 4.5951 19.2242 4.5951 19.4704C4.5951 19.7387 4.75676 19.9565 4.95603 19.9565H6.17932C4.14483 20.7639 2.5299 22.3016 1.6871 24.2338C1.68611 24.2365 1.68497 24.2391 1.68368 24.2416C1.62148 24.385 1.5636 24.5305 1.51005 24.6781C1.51015 24.6796 1.51015 24.6811 1.51005 24.6826C1.4957 24.7228 1.48169 24.763 1.46801 24.8035C1.46289 24.8181 1.45776 24.8327 1.45297 24.8476C1.44067 24.8839 1.42927 24.9205 1.41879 24.9574C1.41264 24.9762 1.40683 24.9953 1.40102 25.0141C1.39008 25.0488 1.37949 25.0838 1.36923 25.1188L1.35078 25.1836C1.34121 25.216 1.33164 25.2507 1.32275 25.2844C1.31626 25.3083 1.3101 25.332 1.30395 25.356C1.29575 25.3884 1.2872 25.4208 1.27934 25.4532C1.27148 25.4856 1.26396 25.518 1.25644 25.5523C1.24892 25.5867 1.23935 25.6269 1.23115 25.6645H0.743405C0.649613 25.6625 0.556355 25.6783 0.469101 25.711C0.381846 25.7437 0.302356 25.7925 0.235293 25.8547C0.16823 25.9169 0.114942 25.9912 0.0785645 26.0732C0.0421866 26.1552 0.0234484 26.2432 0.0234484 26.3322C0.0234484 26.4211 0.0421866 26.5091 0.0785645 26.5911C0.114942 26.6731 0.16823 26.7474 0.235293 26.8096C0.302356 26.8718 0.381846 26.9206 0.469101 26.9533C0.556355 26.986 0.649613 27.0018 0.743405 26.9998H18.03C18.1238 27.0018 18.2171 26.986 18.3043 26.9533C18.3916 26.9206 18.4711 26.8718 18.5382 26.8096C18.6052 26.7474 18.6585 26.6731 18.6949 26.5911C18.7313 26.5091 18.75 26.4211 18.75 26.3322C18.75 26.2432 18.7313 26.1552 18.6949 26.0732C18.6585 25.9912 18.6052 25.9169 18.5382 25.8547C18.4711 25.7925 18.3916 25.7437 18.3043 25.711C18.2171 25.6783 18.1238 25.6625 18.03 25.6645L18.0239 25.6586Z" fill="#595653"/>
<path d="M38.2736 25.6586H37.7862C37.7862 25.6534 37.7839 25.6483 37.7828 25.6434L37.7695 25.5838C37.761 25.5446 37.7517 25.5057 37.7422 25.4671C37.7381 25.449 37.7336 25.4308 37.7292 25.4127C37.7165 25.3618 37.7032 25.3109 37.6895 25.2601L37.6854 25.2455C37.6704 25.1904 37.6547 25.1355 37.6382 25.0809L37.6218 25.0281C37.6106 24.9905 37.5986 24.9532 37.5877 24.9159C37.5812 24.8955 37.5743 24.8754 37.5678 24.8553C37.5559 24.8194 37.5436 24.7834 37.5309 24.7478C37.5244 24.729 37.5176 24.7098 37.5111 24.6914C37.4952 24.6467 37.4787 24.6023 37.4619 24.5582C37.4581 24.5488 37.455 24.5397 37.4513 24.5303C37.4315 24.4785 37.4106 24.427 37.3894 24.3754C37.3819 24.3566 37.374 24.3382 37.3662 24.3197C37.3518 24.2873 37.3375 24.2517 37.3228 24.218L37.2951 24.1554C37.2807 24.123 37.266 24.0906 37.251 24.0582C37.2418 24.0381 37.2322 24.0177 37.2226 23.9976C37.2052 23.9603 37.1884 23.9234 37.169 23.8868C37.1618 23.8728 37.1553 23.8586 37.1481 23.8443C37.1238 23.7961 37.0989 23.7471 37.0736 23.7005L37.0394 23.6399L36.9912 23.552L36.9536 23.4872C36.9379 23.46 36.9222 23.4328 36.9061 23.4056C36.8935 23.3835 36.8805 23.3615 36.8675 23.3408C36.8497 23.3113 36.8333 23.2824 36.8138 23.2533L36.7646 23.1742C36.7414 23.1379 36.7181 23.1013 36.6942 23.0653C36.6792 23.0427 36.6641 23.0203 36.6488 22.9979C36.6334 22.9756 36.6166 22.95 36.6002 22.9263C36.5838 22.9027 36.566 22.879 36.551 22.8557C36.536 22.8324 36.5196 22.8113 36.5035 22.7909C36.4874 22.7705 36.4693 22.7432 36.4519 22.7196L36.4037 22.6548C36.3695 22.6117 36.3381 22.5686 36.3046 22.5252L36.2577 22.4659C36.2379 22.4409 36.2174 22.4163 36.1972 22.3917L36.1521 22.3372C36.1313 22.3123 36.1101 22.2876 36.0889 22.2627L36.0445 22.2115L35.9782 22.1363L35.9388 22.0929C35.8572 22.0031 35.7734 21.9147 35.6876 21.8285L35.65 21.7906L35.5714 21.7138L35.5328 21.6768C35.5054 21.6506 35.4781 21.6247 35.4504 21.5991L35.422 21.5731C35.3253 21.484 35.2259 21.3972 35.1247 21.3139L35.097 21.2909C35.0658 21.265 35.0343 21.2394 35.0027 21.2141L34.9712 21.1888C34.937 21.1629 34.9059 21.1373 34.8728 21.1117L34.856 21.0991C34.7443 21.0135 34.6298 20.9302 34.5142 20.8502L34.4982 20.8389C34.4616 20.8139 34.425 20.7893 34.3881 20.765L34.3639 20.7491C34.3263 20.7241 34.2883 20.6998 34.2504 20.6755L34.2439 20.6717C34.1181 20.5919 33.9899 20.5156 33.8594 20.4426L33.8542 20.4393C33.8129 20.4163 33.7715 20.394 33.7302 20.3716L33.712 20.3619C33.4919 20.2441 33.2659 20.1361 33.0339 20.0378L33.0196 20.0317C32.9584 20.0058 32.8969 19.9808 32.8347 19.9562H34.0579C34.2572 19.9562 34.4189 19.7387 34.4189 19.4701C34.4189 19.2015 34.2572 18.9841 34.0579 18.9841H33.6936C33.7161 18.9296 33.7411 18.868 33.7681 18.7987C34.1126 18.5952 34.719 18.1616 35.3205 17.3651L35.3253 17.359C35.3709 17.2994 35.4157 17.2377 35.4596 17.174L35.4685 17.1613C35.5123 17.0988 35.556 17.0343 35.5991 16.9669L35.6107 16.9491C35.6312 16.9167 35.6517 16.8843 35.6722 16.8519C35.6722 16.8519 35.6722 16.8493 35.6746 16.8477C35.6958 16.8152 35.7167 16.7796 35.7375 16.7449L35.7509 16.7226C35.7686 16.6928 35.7867 16.6623 35.8042 16.6315C35.8076 16.626 35.811 16.6205 35.8141 16.6147C35.8343 16.5797 35.8544 16.544 35.8742 16.5081L35.8879 16.4831C35.9043 16.4533 35.9204 16.4232 35.9365 16.3927C35.9412 16.3843 35.946 16.3755 35.9505 16.3668C35.9696 16.3302 35.9887 16.2932 36.0079 16.2556L36.0212 16.2294C36.0363 16.1989 36.0516 16.1678 36.0667 16.1367L36.0831 16.1043C36.1015 16.0661 36.1197 16.0272 36.1378 15.988L36.149 15.963C36.1641 15.9306 36.1788 15.8982 36.1935 15.8658L36.2109 15.8269C36.228 15.7877 36.2451 15.7482 36.2615 15.7083C36.2646 15.7012 36.2676 15.6937 36.2704 15.6866C36.2858 15.65 36.3008 15.6127 36.3158 15.5751L36.3329 15.5324C36.3469 15.4967 36.361 15.4608 36.3746 15.4248L36.3849 15.3976C36.401 15.3548 36.4167 15.3111 36.4324 15.268L36.4488 15.2219C36.4611 15.1876 36.4731 15.1526 36.485 15.1176C36.4895 15.1046 36.4939 15.0917 36.498 15.0787C36.5131 15.034 36.5281 14.9883 36.5428 14.9426C36.5476 14.9267 36.5527 14.9102 36.5575 14.8953L36.5917 14.7887C36.5961 14.7732 36.6009 14.7563 36.6053 14.7424C36.6194 14.6954 36.6334 14.6474 36.6467 14.5991C36.6511 14.5839 36.6552 14.5684 36.6593 14.5528C36.6696 14.5155 36.6799 14.4783 36.6898 14.4404C36.6942 14.4232 36.6987 14.406 36.7034 14.3888C36.7161 14.3389 36.7287 14.2887 36.741 14.2378L36.7513 14.1954C36.7609 14.1549 36.7704 14.114 36.7797 14.0729L36.792 14.0178C36.8036 13.965 36.8152 13.9122 36.8261 13.8584C36.8285 13.848 36.8306 13.8373 36.8326 13.826C36.8422 13.7796 36.8514 13.7327 36.8603 13.6857C36.8641 13.6666 36.8675 13.6474 36.8713 13.6283C36.8801 13.58 36.8887 13.5311 36.8972 13.4828C36.8989 13.4725 36.901 13.4624 36.9027 13.4524C36.9123 13.3953 36.9216 13.3379 36.9307 13.28C36.9338 13.2605 36.9369 13.2411 36.9396 13.2213C36.9468 13.1743 36.9536 13.127 36.9605 13.0791L36.9666 13.035C36.9748 12.9754 36.9827 12.9154 36.9902 12.8545C36.9926 12.8354 36.9946 12.8163 36.997 12.7968C37.003 12.7484 37.0084 12.6998 37.0134 12.651C37.0155 12.6335 37.0175 12.6163 37.0193 12.5988C37.0259 12.5362 37.032 12.473 37.0377 12.4093C37.0377 12.3915 37.0408 12.3736 37.0422 12.3555C37.0466 12.3043 37.051 12.2528 37.0548 12.2009C37.0548 12.1818 37.0579 12.1627 37.0592 12.1436C37.064 12.0775 37.0685 12.0109 37.0726 11.944C37.0726 11.9287 37.0726 11.9115 37.075 11.8979C37.078 11.8422 37.0811 11.7861 37.0835 11.7298C37.0835 11.7093 37.0835 11.6889 37.0862 11.6685C37.089 11.5989 37.0917 11.5289 37.0938 11.4579C37.0938 11.4482 37.0938 11.4381 37.0938 11.4281C37.0956 11.365 37.097 11.3013 37.0979 11.2369C37.0979 11.2158 37.0979 11.1948 37.0979 11.1737C37.0979 11.1046 37.0979 11.035 37.0979 10.965V10.9488C37.0979 10.8743 37.0979 10.7988 37.0979 10.722V10.6572C37.0979 10.5924 37.0951 10.5243 37.0934 10.4569V10.4203C37.091 10.3425 37.088 10.2638 37.0849 10.1847C37.0849 10.1643 37.0828 10.1436 37.0821 10.1232C37.0792 10.0566 37.0758 9.98967 37.0719 9.92227C37.0719 9.90574 37.0719 9.88986 37.0692 9.87204C37.0644 9.79103 37.0591 9.70937 37.0534 9.62707L37.0493 9.56971C37.0442 9.50101 37.0391 9.43199 37.0333 9.36232C37.0333 9.34223 37.0302 9.32214 37.0285 9.30205C37.0213 9.2178 37.0134 9.13258 37.0052 9.04703C37.0052 9.03083 37.0018 9.01463 37.0005 8.9981C36.9933 8.92519 36.9854 8.85164 36.9776 8.77743C36.9752 8.75507 36.9728 8.73304 36.97 8.71068C36.9605 8.62254 36.9502 8.53408 36.9393 8.44432C36.9393 8.4333 36.9362 8.42228 36.9348 8.41191C36.925 8.33155 36.9147 8.25076 36.9037 8.16953C36.9003 8.14555 36.8972 8.12158 36.8938 8.0976C36.8811 8.00557 36.868 7.91278 36.8545 7.81924C35.4873 -1.40748 25.7988 0.0899114 25.7988 0.0899114L26.1092 2.07239L20.2498 7.94076L20.5058 10.2068L22.7254 11.5029C22.8243 11.2645 22.9514 11.0374 23.1041 10.826C24.5362 9.25993 27.3147 8.03052 28.11 7.7755C28.2693 7.72463 28.3599 7.69903 28.3599 7.69903C24.5554 12.3672 24.9881 17.7151 25.1576 18.9899C24.9812 19.0223 24.8449 19.2242 24.8449 19.4704C24.8449 19.7387 25.0065 19.9565 25.2058 19.9565H26.4291C24.3946 20.7639 22.7797 22.3016 21.9369 24.2338C21.9359 24.2365 21.9347 24.2391 21.9334 24.2416C21.8712 24.385 21.8134 24.5305 21.7598 24.6781C21.7599 24.6796 21.7599 24.6811 21.7598 24.6826C21.7455 24.7228 21.7314 24.763 21.7178 24.8035C21.7126 24.8181 21.7075 24.8327 21.7027 24.8476C21.6904 24.8839 21.679 24.9205 21.6685 24.9574C21.6624 24.9762 21.6566 24.9953 21.6508 25.0141C21.6398 25.0488 21.6292 25.0838 21.619 25.1188L21.6005 25.1836C21.591 25.216 21.5814 25.2507 21.5725 25.2844C21.566 25.3083 21.5599 25.332 21.5537 25.356C21.5455 25.3884 21.537 25.4208 21.5291 25.4532C21.5212 25.4856 21.5137 25.518 21.5062 25.5523C21.4987 25.5867 21.4891 25.6269 21.4809 25.6645H20.9932C20.8994 25.6625 20.8061 25.6783 20.7189 25.711C20.6316 25.7437 20.5521 25.7925 20.485 25.8547C20.418 25.9169 20.3647 25.9912 20.3283 26.0732C20.2919 26.1552 20.2732 26.2432 20.2732 26.3322C20.2732 26.4211 20.2919 26.5091 20.3283 26.5911C20.3647 26.6731 20.418 26.7474 20.485 26.8096C20.5521 26.8718 20.6316 26.9206 20.7189 26.9533C20.8061 26.986 20.8994 27.0018 20.9932 26.9998H38.2798C38.3736 27.0018 38.4668 26.986 38.5541 26.9533C38.6414 26.9206 38.7209 26.8718 38.7879 26.8096C38.855 26.7474 38.9083 26.6731 38.9446 26.5911C38.981 26.5091 38.9998 26.4211 38.9998 26.3322C38.9998 26.2432 38.981 26.1552 38.9446 26.0732C38.9083 25.9912 38.855 25.9169 38.7879 25.8547C38.7209 25.7925 38.6414 25.7437 38.5541 25.711C38.4668 25.6783 38.3736 25.6625 38.2798 25.6645L38.2736 25.6586Z" fill="#595653"/>
<path d="M58.5241 25.6586H58.0367C58.0367 25.6534 58.0343 25.6483 58.0333 25.6434L58.02 25.5838C58.0114 25.5446 58.0022 25.5057 57.9926 25.4671C57.9885 25.449 57.9841 25.4308 57.9797 25.4127C57.967 25.3618 57.9537 25.3109 57.94 25.2601L57.9359 25.2455C57.9209 25.1904 57.9051 25.1355 57.8887 25.0809L57.8723 25.0281C57.8611 24.9905 57.8491 24.9532 57.8382 24.9159C57.8317 24.8955 57.8248 24.8754 57.8183 24.8553C57.8064 24.8194 57.7941 24.7834 57.7814 24.7478C57.7749 24.729 57.7681 24.7098 57.7616 24.6914C57.7456 24.6467 57.7292 24.6023 57.7124 24.5582C57.7086 24.5488 57.7055 24.5397 57.7018 24.5303C57.682 24.4785 57.6611 24.427 57.6399 24.3754C57.6324 24.3566 57.6245 24.3382 57.6167 24.3197C57.6023 24.2873 57.588 24.2517 57.5733 24.218L57.5456 24.1554C57.5312 24.123 57.5165 24.0906 57.5015 24.0582C57.4923 24.0381 57.4827 24.0177 57.4731 23.9976C57.4557 23.9603 57.4389 23.9234 57.4195 23.8868C57.4123 23.8728 57.4058 23.8586 57.3986 23.8443C57.3743 23.7961 57.3494 23.7471 57.3241 23.7005L57.2899 23.6399L57.2417 23.552L57.2041 23.4872C57.1884 23.46 57.1727 23.4328 57.1566 23.4056C57.144 23.3835 57.131 23.3615 57.118 23.3408C57.1002 23.3113 57.0838 23.2824 57.0643 23.2533L57.0151 23.1742C56.9919 23.1379 56.9686 23.1013 56.9447 23.0653C56.9297 23.0427 56.9146 23.0203 56.8992 22.9979C56.8839 22.9756 56.8671 22.95 56.8507 22.9263C56.8343 22.9027 56.8165 22.879 56.8015 22.8557C56.7864 22.8324 56.77 22.8113 56.754 22.7909C56.7379 22.7705 56.7198 22.7432 56.7024 22.7196L56.6542 22.6548C56.62 22.6117 56.5885 22.5686 56.5551 22.5252L56.5082 22.4659C56.4884 22.4409 56.4679 22.4163 56.4477 22.3917L56.4026 22.3372C56.3818 22.3123 56.3606 22.2876 56.3394 22.2627L56.2949 22.2115L56.2286 22.1363L56.1893 22.0929C56.1076 22.0031 56.0239 21.9147 55.9381 21.8285L55.9005 21.7906L55.8219 21.7138L55.7833 21.6768C55.7559 21.6506 55.7286 21.6247 55.7009 21.5991L55.6725 21.5731C55.5758 21.484 55.4763 21.3972 55.3752 21.3139L55.3475 21.2909C55.3163 21.265 55.2848 21.2394 55.2532 21.2141L55.2217 21.1888C55.1875 21.1629 55.1564 21.1373 55.1233 21.1117L55.1065 21.0991C54.9948 21.0135 54.8803 20.9302 54.7647 20.8502L54.7487 20.8389C54.7121 20.8139 54.6755 20.7893 54.6386 20.765L54.6143 20.7491C54.5767 20.7241 54.5388 20.6998 54.5009 20.6755L54.4944 20.6717C54.3686 20.5919 54.2404 20.5156 54.1099 20.4426L54.1047 20.4393C54.0634 20.4163 54.022 20.394 53.9807 20.3716L53.9625 20.3619C53.7424 20.2441 53.5164 20.1361 53.2844 20.0378L53.2701 20.0317C53.2089 20.0058 53.1474 19.9808 53.0851 19.9562H54.3084C54.5077 19.9562 54.6694 19.7387 54.6694 19.4701C54.6694 19.2015 54.5077 18.9841 54.3084 18.9841H53.9441C53.9666 18.9296 53.9916 18.868 54.0186 18.7987C54.3631 18.5952 54.9695 18.1616 55.571 17.3651L55.5758 17.359C55.6214 17.2994 55.6662 17.2377 55.7101 17.174L55.719 17.1613C55.7628 17.0988 55.8065 17.0343 55.8496 16.9669L55.8612 16.9491C55.8817 16.9167 55.9022 16.8843 55.9227 16.8519C55.9227 16.8519 55.9227 16.8493 55.9251 16.8477C55.9463 16.8152 55.9672 16.7796 55.988 16.7449L56.0013 16.7226C56.0191 16.6928 56.0372 16.6623 56.0547 16.6315C56.0581 16.626 56.0615 16.6205 56.0646 16.6147C56.0847 16.5797 56.1049 16.544 56.1247 16.5081L56.1384 16.4831C56.1548 16.4533 56.1709 16.4232 56.1869 16.3927C56.1917 16.3843 56.1965 16.3755 56.201 16.3668C56.2201 16.3302 56.2392 16.2932 56.2584 16.2556L56.2717 16.2294C56.2867 16.1989 56.3021 16.1678 56.3172 16.1367L56.3336 16.1043C56.352 16.0661 56.3701 16.0272 56.3883 15.988L56.3995 15.963C56.4146 15.9306 56.4293 15.8982 56.444 15.8658L56.4614 15.8269C56.4785 15.7877 56.4956 15.7482 56.512 15.7083C56.5151 15.7012 56.5181 15.6937 56.5209 15.6866C56.5363 15.65 56.5513 15.6127 56.5663 15.5751L56.5834 15.5324C56.5974 15.4967 56.6114 15.4608 56.6251 15.4248L56.6354 15.3976C56.6514 15.3548 56.6672 15.3111 56.6829 15.268L56.6993 15.2219C56.7116 15.1876 56.7236 15.1526 56.7355 15.1176C56.74 15.1046 56.7444 15.0917 56.7485 15.0787C56.7635 15.034 56.7786 14.9883 56.7933 14.9426C56.7981 14.9267 56.8032 14.9102 56.808 14.8953L56.8422 14.7887C56.8466 14.7732 56.8514 14.7563 56.8558 14.7424C56.8698 14.6954 56.8839 14.6474 56.8972 14.5991C56.9016 14.5839 56.9057 14.5684 56.9098 14.5528C56.9201 14.5155 56.9303 14.4783 56.9403 14.4404C56.9447 14.4232 56.9491 14.406 56.9539 14.3888C56.9666 14.3389 56.9792 14.2887 56.9915 14.2378L57.0018 14.1954C57.0113 14.1549 57.0209 14.114 57.0301 14.0729L57.0425 14.0178C57.0541 13.965 57.0657 13.9122 57.0766 13.8584C57.079 13.848 57.0811 13.8373 57.0831 13.826C57.0927 13.7796 57.1019 13.7327 57.1108 13.6857C57.1146 13.6666 57.118 13.6474 57.1217 13.6283C57.1306 13.58 57.1392 13.5311 57.1477 13.4828C57.1494 13.4725 57.1515 13.4624 57.1532 13.4524C57.1628 13.3953 57.1721 13.3379 57.1812 13.28C57.1843 13.2605 57.1874 13.2411 57.1901 13.2213C57.1973 13.1743 57.2041 13.127 57.211 13.0791L57.2171 13.035C57.2253 12.9754 57.2332 12.9154 57.2407 12.8545C57.2431 12.8354 57.2451 12.8163 57.2475 12.7968C57.2535 12.7484 57.2589 12.6998 57.2639 12.651C57.266 12.6335 57.268 12.6163 57.2697 12.5988C57.2764 12.5362 57.2825 12.473 57.2882 12.4093C57.2882 12.3915 57.2913 12.3736 57.2926 12.3555C57.2971 12.3043 57.3015 12.2528 57.3053 12.2009C57.3053 12.1818 57.3084 12.1627 57.3097 12.1436C57.3145 12.0775 57.319 12.0109 57.3231 11.944C57.3231 11.9287 57.3231 11.9115 57.3255 11.8979C57.3285 11.8422 57.3316 11.7861 57.334 11.7298C57.334 11.7093 57.334 11.6889 57.3367 11.6685C57.3395 11.5989 57.3422 11.5289 57.3443 11.4579C57.3443 11.4482 57.3443 11.4381 57.3443 11.4281C57.3461 11.365 57.3474 11.3013 57.3484 11.2369C57.3484 11.2158 57.3484 11.1948 57.3484 11.1737C57.3484 11.1046 57.3484 11.035 57.3484 10.965V10.9488C57.3484 10.8743 57.3484 10.7988 57.3484 10.722V10.6572C57.3484 10.5924 57.3456 10.5243 57.3439 10.4569V10.4203C57.3415 10.3425 57.3384 10.2638 57.3354 10.1847C57.3354 10.1643 57.3333 10.1436 57.3326 10.1232C57.3297 10.0566 57.3263 9.98967 57.3224 9.92227C57.3224 9.90574 57.3224 9.88986 57.3196 9.87204C57.3149 9.79103 57.3096 9.70937 57.3039 9.62707L57.2998 9.56971C57.2947 9.50101 57.2896 9.43199 57.2838 9.36232C57.2838 9.34223 57.2807 9.32214 57.279 9.30205C57.2718 9.2178 57.2639 9.13258 57.2557 9.04703C57.2557 9.03083 57.2523 9.01463 57.2509 8.9981C57.2438 8.92519 57.2359 8.85164 57.228 8.77743C57.2257 8.75507 57.2233 8.73304 57.2205 8.71068C57.211 8.62254 57.2007 8.53408 57.1898 8.44432C57.1898 8.4333 57.1867 8.42228 57.1853 8.41191C57.1755 8.33155 57.1652 8.25076 57.1542 8.16953C57.1508 8.14555 57.1477 8.12158 57.1443 8.0976C57.1315 8.00557 57.1184 7.91278 57.105 7.81924C55.7378 -1.40748 46.0493 0.0899114 46.0493 0.0899114L46.3596 2.07239L40.5002 7.94076L40.7562 10.2068L42.9759 11.5029C43.0748 11.2645 43.2019 11.0374 43.3546 10.826C44.7867 9.25993 47.5652 8.03052 48.3605 7.7755C48.5198 7.72463 48.6104 7.69903 48.6104 7.69903C44.8058 12.3672 45.2386 17.7151 45.4081 18.9899C45.2317 19.0223 45.0953 19.2242 45.0953 19.4704C45.0953 19.7387 45.257 19.9565 45.4563 19.9565H46.6796C44.6451 20.7639 43.0301 22.3016 42.1873 24.2338C42.1864 24.2365 42.1852 24.2391 42.1839 24.2416C42.1217 24.385 42.0638 24.5305 42.0103 24.6781C42.0104 24.6796 42.0104 24.6811 42.0103 24.6826C41.9959 24.7228 41.9819 24.763 41.9683 24.8035C41.9631 24.8181 41.958 24.8327 41.9532 24.8476C41.9409 24.8839 41.9295 24.9205 41.919 24.9574C41.9129 24.9762 41.9071 24.9953 41.9013 25.0141C41.8903 25.0488 41.8797 25.0838 41.8695 25.1188L41.851 25.1836C41.8414 25.216 41.8319 25.2507 41.823 25.2844C41.8165 25.3083 41.8103 25.332 41.8042 25.356C41.796 25.3884 41.7874 25.4208 41.7796 25.4532C41.7717 25.4856 41.7642 25.518 41.7567 25.5523C41.7492 25.5867 41.7396 25.6269 41.7314 25.6645H41.2436C41.1499 25.6625 41.0566 25.6783 40.9693 25.711C40.8821 25.7437 40.8026 25.7925 40.7355 25.8547C40.6685 25.9169 40.6152 25.9912 40.5788 26.0732C40.5424 26.1552 40.5237 26.2432 40.5237 26.3322C40.5237 26.4211 40.5424 26.5091 40.5788 26.5911C40.6152 26.6731 40.6685 26.7474 40.7355 26.8096C40.8026 26.8718 40.8821 26.9206 40.9693 26.9533C41.0566 26.986 41.1499 27.0018 41.2436 26.9998H58.5303C58.6241 27.0018 58.7173 26.986 58.8046 26.9533C58.8918 26.9206 58.9713 26.8718 59.0384 26.8096C59.1055 26.7474 59.1587 26.6731 59.1951 26.5911C59.2315 26.5091 59.2502 26.4211 59.2502 26.3322C59.2502 26.2432 59.2315 26.1552 59.1951 26.0732C59.1587 25.9912 59.1055 25.9169 59.0384 25.8547C58.9713 25.7925 58.8918 25.7437 58.8046 25.711C58.7173 25.6783 58.6241 25.6625 58.5303 25.6645L58.5241 25.6586Z" fill="#595653"/>
<path d="M78.7739 25.6586H78.2865C78.2865 25.6534 78.2841 25.6483 78.2831 25.6434L78.2697 25.5838C78.2612 25.5446 78.252 25.5057 78.2424 25.4671C78.2383 25.449 78.2339 25.4308 78.2294 25.4127C78.2168 25.3618 78.2034 25.3109 78.1898 25.2601L78.1857 25.2455C78.1706 25.1904 78.1549 25.1355 78.1385 25.0809L78.1221 25.0281C78.1108 24.9905 78.0988 24.9532 78.0879 24.9159C78.0814 24.8955 78.0746 24.8754 78.0681 24.8553C78.0561 24.8194 78.0438 24.7834 78.0312 24.7478C78.0247 24.729 78.0178 24.7098 78.0113 24.6914C77.9954 24.6467 77.979 24.6023 77.9621 24.5582C77.9584 24.5488 77.9553 24.5397 77.9515 24.5303C77.9317 24.4785 77.9109 24.427 77.8897 24.3754C77.8821 24.3566 77.8743 24.3382 77.8664 24.3197C77.8521 24.2873 77.8377 24.2517 77.823 24.218L77.7953 24.1554C77.781 24.123 77.7663 24.0906 77.7512 24.0582C77.742 24.0381 77.7324 24.0177 77.7229 23.9976C77.7054 23.9603 77.6887 23.9234 77.6692 23.8868C77.662 23.8728 77.6555 23.8586 77.6484 23.8443C77.6241 23.7961 77.5991 23.7471 77.5738 23.7005L77.5397 23.6399L77.4915 23.552L77.4539 23.4872C77.4382 23.46 77.4224 23.4328 77.4064 23.4056C77.3937 23.3835 77.3807 23.3615 77.3677 23.3408C77.35 23.3113 77.3336 23.2824 77.3141 23.2533L77.2649 23.1742C77.2416 23.1379 77.2184 23.1013 77.1945 23.0653C77.1794 23.0427 77.1644 23.0203 77.149 22.9979C77.1336 22.9756 77.1169 22.95 77.1005 22.9263C77.0841 22.9027 77.0663 22.879 77.0512 22.8557C77.0362 22.8324 77.0198 22.8113 77.0037 22.7909C76.9877 22.7705 76.9696 22.7432 76.9521 22.7196L76.9039 22.6548C76.8697 22.6117 76.8383 22.5686 76.8048 22.5252L76.758 22.4659C76.7382 22.4409 76.7176 22.4163 76.6975 22.3917L76.6524 22.3372C76.6315 22.3123 76.6103 22.2876 76.5891 22.2627L76.5447 22.2115L76.4784 22.1363L76.4391 22.0929C76.3574 22.0031 76.2737 21.9147 76.1879 21.8285L76.1503 21.7906L76.0717 21.7138L76.033 21.6768C76.0057 21.6506 75.9783 21.6247 75.9507 21.5991L75.9223 21.5731C75.8256 21.484 75.7261 21.3972 75.6249 21.3139L75.5972 21.2909C75.566 21.265 75.5346 21.2394 75.5029 21.2141L75.4715 21.1888C75.4373 21.1629 75.4062 21.1373 75.373 21.1117L75.3563 21.0991C75.2445 21.0135 75.13 20.9302 75.0145 20.8502L74.9984 20.8389C74.9618 20.8139 74.9253 20.7893 74.8884 20.765L74.8641 20.7491C74.8265 20.7241 74.7886 20.6998 74.7506 20.6755L74.7441 20.6717C74.6183 20.5919 74.4902 20.5156 74.3596 20.4426L74.3545 20.4393C74.3131 20.4163 74.2718 20.394 74.2304 20.3716L74.2123 20.3619C73.9922 20.2441 73.7661 20.1361 73.5342 20.0378L73.5198 20.0317C73.4586 20.0058 73.3971 19.9808 73.3349 19.9562H74.5582C74.7575 19.9562 74.9191 19.7387 74.9191 19.4701C74.9191 19.2015 74.7575 18.9841 74.5582 18.9841H74.1938C74.2164 18.9296 74.2413 18.868 74.2683 18.7987C74.6129 18.5952 75.2192 18.1616 75.8208 17.3651L75.8256 17.359C75.8711 17.2994 75.9159 17.2377 75.9599 17.174L75.9688 17.1613C76.0125 17.0988 76.0563 17.0343 76.0993 16.9669L76.111 16.9491C76.1315 16.9167 76.152 16.8843 76.1725 16.8519C76.1725 16.8519 76.1725 16.8493 76.1749 16.8477C76.1961 16.8152 76.2169 16.7796 76.2378 16.7449L76.2511 16.7226C76.2689 16.6928 76.287 16.6623 76.3044 16.6315C76.3078 16.626 76.3113 16.6205 76.3143 16.6147C76.3345 16.5797 76.3547 16.544 76.3745 16.5081L76.3882 16.4831C76.4046 16.4533 76.4206 16.4232 76.4367 16.3927C76.4415 16.3843 76.4463 16.3755 76.4507 16.3668C76.4698 16.3302 76.489 16.2932 76.5081 16.2556L76.5215 16.2294C76.5365 16.1989 76.5519 16.1678 76.5669 16.1367L76.5833 16.1043C76.6018 16.0661 76.6199 16.0272 76.638 15.988L76.6493 15.963C76.6643 15.9306 76.679 15.8982 76.6937 15.8658L76.7112 15.8269C76.7282 15.7877 76.7453 15.7482 76.7617 15.7083C76.7648 15.7012 76.7679 15.6937 76.7706 15.6866C76.786 15.65 76.801 15.6127 76.8161 15.5751L76.8332 15.5324C76.8472 15.4967 76.8612 15.4608 76.8749 15.4248L76.8851 15.3976C76.9012 15.3548 76.9169 15.3111 76.9326 15.268L76.949 15.2219C76.9614 15.1876 76.9733 15.1526 76.9853 15.1176C76.9897 15.1046 76.9942 15.0917 76.9983 15.0787C77.0133 15.034 77.0283 14.9883 77.043 14.9426C77.0478 14.9267 77.053 14.9102 77.0577 14.8953L77.0919 14.7887C77.0964 14.7732 77.1011 14.7563 77.1056 14.7424C77.1196 14.6954 77.1336 14.6474 77.1469 14.5991C77.1514 14.5839 77.1555 14.5684 77.1596 14.5528C77.1698 14.5155 77.1801 14.4783 77.19 14.4404C77.1945 14.4232 77.1989 14.406 77.2037 14.3888C77.2163 14.3389 77.229 14.2887 77.2413 14.2378L77.2515 14.1954C77.2611 14.1549 77.2707 14.114 77.2799 14.0729L77.2922 14.0178C77.3038 13.965 77.3154 13.9122 77.3264 13.8584C77.3288 13.848 77.3308 13.8373 77.3329 13.826C77.3425 13.7796 77.3517 13.7327 77.3606 13.6857C77.3643 13.6666 77.3677 13.6474 77.3715 13.6283C77.3804 13.58 77.3889 13.5311 77.3975 13.4828C77.3992 13.4725 77.4012 13.4624 77.4029 13.4524C77.4125 13.3953 77.4219 13.3379 77.431 13.28C77.4341 13.2605 77.4371 13.2411 77.4399 13.2213C77.447 13.1743 77.4539 13.127 77.4607 13.0791L77.4669 13.035C77.4751 12.9754 77.4829 12.9154 77.4904 12.8545C77.4928 12.8354 77.4949 12.8163 77.4973 12.7968C77.5032 12.7484 77.5087 12.6998 77.5137 12.651C77.5157 12.6335 77.5178 12.6163 77.5195 12.5988C77.5261 12.5362 77.5323 12.473 77.538 12.4093C77.538 12.3915 77.541 12.3736 77.5424 12.3555C77.5468 12.3043 77.5513 12.2528 77.555 12.2009C77.555 12.1818 77.5581 12.1627 77.5595 12.1436C77.5643 12.0775 77.5687 12.0109 77.5728 11.944C77.5728 11.9287 77.5728 11.9115 77.5752 11.8979C77.5783 11.8422 77.5814 11.7861 77.5838 11.7298C77.5838 11.7093 77.5838 11.6889 77.5865 11.6685C77.5892 11.5989 77.592 11.5289 77.594 11.4579C77.594 11.4482 77.594 11.4381 77.594 11.4281C77.5958 11.365 77.5972 11.3013 77.5981 11.2369C77.5981 11.2158 77.5981 11.1948 77.5981 11.1737C77.5981 11.1046 77.5981 11.035 77.5981 10.965V10.9488C77.5981 10.8743 77.5981 10.7988 77.5981 10.722V10.6572C77.5981 10.5924 77.5954 10.5243 77.5937 10.4569V10.4203C77.5913 10.3425 77.5882 10.2638 77.5851 10.1847C77.5851 10.1643 77.5831 10.1436 77.5824 10.1232C77.5794 10.0566 77.576 9.98967 77.5721 9.92227C77.5721 9.90574 77.5721 9.88986 77.5694 9.87204C77.5646 9.79103 77.5594 9.70937 77.5537 9.62707L77.5496 9.56971C77.5445 9.50101 77.5393 9.43199 77.5335 9.36232C77.5335 9.34223 77.5304 9.32214 77.5287 9.30205C77.5216 9.2178 77.5137 9.13258 77.5055 9.04703C77.5055 9.03083 77.5021 9.01463 77.5007 8.9981C77.4935 8.92519 77.4857 8.85164 77.4778 8.77743C77.4754 8.75507 77.473 8.73304 77.4703 8.71068C77.4607 8.62254 77.4505 8.53408 77.4395 8.44432C77.4395 8.4333 77.4364 8.42228 77.4351 8.41191C77.4253 8.33155 77.4149 8.25076 77.404 8.16953C77.4006 8.14555 77.3975 8.12158 77.3941 8.0976C77.3813 8.00557 77.3682 7.91278 77.3548 7.81924C75.9876 -1.40748 66.299 0.0899114 66.299 0.0899114L66.6094 2.07239L60.75 7.94076L61.006 10.2068L63.2256 11.5029C63.3246 11.2645 63.4516 11.0374 63.6043 10.826C65.0365 9.25993 67.8149 8.03052 68.6103 7.7755C68.7695 7.72463 68.8601 7.69903 68.8601 7.69903C65.0556 12.3672 65.4883 17.7151 65.6578 18.9899C65.4815 19.0223 65.3451 19.2242 65.3451 19.4704C65.3451 19.7387 65.5068 19.9565 65.706 19.9565H66.9293C64.8948 20.7639 63.2799 22.3016 62.4371 24.2338C62.4361 24.2365 62.435 24.2391 62.4337 24.2416C62.3715 24.385 62.3136 24.5305 62.2601 24.6781C62.2601 24.6796 62.2601 24.6811 62.2601 24.6826C62.2457 24.7228 62.2317 24.763 62.218 24.8035C62.2129 24.8181 62.2078 24.8327 62.203 24.8476C62.1907 24.8839 62.1793 24.9205 62.1688 24.9574C62.1626 24.9762 62.1568 24.9953 62.151 25.0141C62.1401 25.0488 62.1295 25.0838 62.1192 25.1188L62.1008 25.1836C62.0912 25.216 62.0816 25.2507 62.0728 25.2844C62.0663 25.3083 62.0601 25.332 62.0539 25.356C62.0457 25.3884 62.0372 25.4208 62.0293 25.4532C62.0215 25.4856 62.014 25.518 62.0064 25.5523C61.9989 25.5867 61.9894 25.6269 61.9811 25.6645H61.4934C61.3996 25.6625 61.3064 25.6783 61.2191 25.711C61.1318 25.7437 61.0524 25.7925 60.9853 25.8547C60.9182 25.9169 60.8649 25.9912 60.8286 26.0732C60.7922 26.1552 60.7734 26.2432 60.7734 26.3322C60.7734 26.4211 60.7922 26.5091 60.8286 26.5911C60.8649 26.6731 60.9182 26.7474 60.9853 26.8096C61.0524 26.8718 61.1318 26.9206 61.2191 26.9533C61.3064 26.986 61.3996 27.0018 61.4934 26.9998H78.78C78.8738 27.0018 78.9671 26.986 79.0543 26.9533C79.1416 26.9206 79.2211 26.8718 79.2882 26.8096C79.3552 26.7474 79.4085 26.6731 79.4449 26.5911C79.4813 26.5091 79.5 26.4211 79.5 26.3322C79.5 26.2432 79.4813 26.1552 79.4449 26.0732C79.4085 25.9912 79.3552 25.9169 79.2882 25.8547C79.2211 25.7925 79.1416 25.7437 79.0543 25.711C78.9671 25.6783 78.8738 25.6625 78.78 25.6645L78.7739 25.6586Z" fill="#595653"/>
</svg>
