<svg width="93" height="32" viewBox="0 0 93 32" fill="none" xmlns="http://www.w3.org/2000/svg">
<path d="M21.3163 29.9437H20.7534C20.7534 29.9377 20.7506 29.9318 20.7495 29.9261L20.7341 29.8573C20.7242 29.812 20.7135 29.7671 20.7025 29.7226C20.6978 29.7016 20.6926 29.6806 20.6875 29.6597C20.6729 29.6009 20.6575 29.5422 20.6417 29.4834L20.637 29.4666C20.6196 29.4029 20.6014 29.3396 20.5825 29.2765L20.5635 29.2155C20.5505 29.172 20.5367 29.129 20.5241 29.086C20.5166 29.0624 20.5087 29.0392 20.5012 29.016C20.4874 28.9744 20.4731 28.9329 20.4585 28.8917C20.451 28.87 20.4431 28.8479 20.4356 28.8266C20.4172 28.775 20.3983 28.7237 20.3788 28.6728C20.3745 28.6619 20.3709 28.6515 20.3666 28.6406C20.3437 28.5807 20.3196 28.5212 20.2951 28.4617C20.2864 28.44 20.2773 28.4187 20.2683 28.3974C20.2517 28.3599 20.2351 28.3188 20.2181 28.2798L20.1862 28.2076C20.1696 28.1702 20.1526 28.1328 20.1352 28.0953C20.1246 28.0721 20.1135 28.0486 20.1025 28.0254C20.0823 27.9823 20.063 27.9397 20.0405 27.8974C20.0322 27.8813 20.0247 27.8648 20.0164 27.8483C19.9884 27.7926 19.9596 27.7361 19.9304 27.6822L19.8909 27.6122L19.8352 27.5108L19.7918 27.4359C19.7736 27.4045 19.7555 27.373 19.7369 27.3416C19.7223 27.3162 19.7073 27.2907 19.6923 27.2668C19.6718 27.2327 19.6529 27.1994 19.6304 27.1657L19.5735 27.0744C19.5467 27.0325 19.5198 26.9902 19.4922 26.9487C19.4748 26.9225 19.4575 26.8966 19.4397 26.8708C19.4219 26.845 19.4026 26.8154 19.3836 26.7881C19.3647 26.7608 19.3442 26.7335 19.3268 26.7065C19.3094 26.6796 19.2905 26.6553 19.2719 26.6317C19.2534 26.6081 19.2324 26.5767 19.2123 26.5493L19.1567 26.4745C19.1172 26.4247 19.0809 26.3749 19.0422 26.3248L18.9881 26.2563C18.9652 26.2275 18.9415 26.199 18.9182 26.1706L18.8661 26.1077C18.842 26.0789 18.8176 26.0505 18.7931 26.0217L18.7418 25.9625L18.6652 25.8757L18.6198 25.8256C18.5254 25.7219 18.4287 25.6197 18.3297 25.5202L18.2862 25.4764L18.1954 25.3877L18.1508 25.345C18.1192 25.3147 18.0877 25.2848 18.0557 25.2552L18.0229 25.2253C17.9112 25.1224 17.7963 25.0221 17.6795 24.9259L17.6475 24.8993C17.6115 24.8694 17.5752 24.8398 17.5386 24.8106L17.5023 24.7814C17.4628 24.7515 17.4269 24.7219 17.3886 24.6923L17.3692 24.6777C17.2401 24.5789 17.1079 24.4828 16.9745 24.3903L16.9559 24.3772C16.9137 24.3484 16.8714 24.32 16.8288 24.2919L16.8008 24.2736C16.7574 24.2447 16.7135 24.2167 16.6697 24.1886L16.6622 24.1841C16.517 24.0921 16.3689 24.0039 16.2181 23.9195L16.2122 23.9158C16.1645 23.8892 16.1167 23.8634 16.0689 23.8376L16.048 23.8263C15.7938 23.6904 15.5327 23.5656 15.2648 23.4521L15.2482 23.445C15.1776 23.415 15.1065 23.3862 15.0347 23.3578H16.4475C16.6776 23.3578 16.8643 23.1067 16.8643 22.7964C16.8643 22.4862 16.6776 22.2351 16.4475 22.2351H16.0267C16.0527 22.1722 16.0816 22.1011 16.1127 22.021C16.5106 21.786 17.2109 21.2852 17.9057 20.3653L17.9112 20.3582C17.9639 20.2894 18.0156 20.2181 18.0664 20.1445L18.0766 20.1299C18.1271 20.0577 18.1777 19.9832 18.2274 19.9054L18.2408 19.8848C18.2645 19.8474 18.2882 19.81 18.3119 19.7725C18.3119 19.7725 18.3119 19.7695 18.3147 19.7677C18.3391 19.7302 18.3632 19.6891 18.3873 19.649L18.4027 19.6232C18.4232 19.5888 18.4441 19.5536 18.4643 19.5181C18.4682 19.5117 18.4722 19.5053 18.4757 19.4986C18.499 19.4582 18.5223 19.417 18.5452 19.3755L18.561 19.3466C18.5799 19.3122 18.5985 19.2774 18.617 19.2422C18.6226 19.2325 18.6281 19.2224 18.6332 19.2123C18.6553 19.17 18.6774 19.1273 18.6995 19.0839L18.7149 19.0536C18.7323 19.0184 18.7501 18.9825 18.7674 18.9466L18.7864 18.9092C18.8077 18.865 18.8286 18.8201 18.8495 18.7748L18.8626 18.746C18.8799 18.7086 18.8969 18.6711 18.9139 18.6337L18.934 18.5888C18.9537 18.5435 18.9735 18.4979 18.9924 18.4518C18.996 18.4436 18.9995 18.435 19.0027 18.4268C19.0205 18.3845 19.0378 18.3414 19.0552 18.298L19.0749 18.2486C19.0911 18.2074 19.1073 18.1659 19.1231 18.1244L19.1349 18.0929C19.1535 18.0435 19.1716 17.993 19.1898 17.9432L19.2088 17.8901C19.223 17.8504 19.2368 17.81 19.2506 17.7696C19.2557 17.7546 19.2609 17.7396 19.2656 17.7247C19.283 17.673 19.3003 17.6203 19.3173 17.5675C19.3228 17.5492 19.3288 17.5301 19.3343 17.5128L19.3738 17.3897C19.3789 17.3718 19.3844 17.3523 19.3896 17.3362C19.4057 17.2819 19.4219 17.2266 19.4373 17.1708C19.4424 17.1532 19.4472 17.1352 19.4519 17.1173C19.4638 17.0742 19.4756 17.0312 19.4871 16.9874C19.4922 16.9676 19.4973 16.9477 19.5028 16.9279C19.5175 16.8703 19.5321 16.8123 19.5463 16.7535L19.5581 16.7045C19.5692 16.6577 19.5802 16.6105 19.5909 16.563L19.6051 16.4994C19.6185 16.4384 19.6319 16.3774 19.6446 16.3153C19.6473 16.3033 19.6497 16.2909 19.6521 16.2778C19.6631 16.2243 19.6738 16.1701 19.684 16.1158C19.6884 16.0937 19.6923 16.0716 19.6967 16.0496C19.7069 15.9938 19.7168 15.9373 19.7267 15.8815C19.7286 15.8695 19.731 15.8579 19.733 15.8463C19.744 15.7805 19.7548 15.7141 19.7654 15.6472C19.7689 15.6248 19.7725 15.6023 19.7756 15.5795C19.7839 15.5252 19.7918 15.4706 19.7997 15.4152L19.8068 15.3643C19.8163 15.2955 19.8254 15.2262 19.834 15.1559C19.8368 15.1338 19.8392 15.1117 19.8419 15.0892C19.8488 15.0334 19.8551 14.9772 19.8609 14.9208C19.8633 14.9006 19.8656 14.8808 19.8676 14.8606C19.8752 14.7882 19.8823 14.7153 19.8889 14.6417C19.8889 14.6211 19.8925 14.6005 19.894 14.5795C19.8992 14.5204 19.9043 14.4609 19.9086 14.401C19.9086 14.3789 19.9122 14.3569 19.9138 14.3348C19.9193 14.2584 19.9244 14.1816 19.9292 14.1042C19.9292 14.0867 19.9292 14.0668 19.9319 14.0511C19.9355 13.9867 19.939 13.922 19.9418 13.8569C19.9418 13.8333 19.9418 13.8097 19.945 13.7861C19.9481 13.7057 19.9513 13.6248 19.9537 13.5429C19.9537 13.5316 19.9537 13.52 19.9537 13.5084C19.9558 13.4356 19.9573 13.362 19.9584 13.2876C19.9584 13.2633 19.9584 13.239 19.9584 13.2147C19.9584 13.1348 19.9584 13.0545 19.9584 12.9737V12.9549C19.9584 12.8689 19.9584 12.7817 19.9584 12.693V12.6181C19.9584 12.5433 19.9552 12.4647 19.9533 12.3868V12.3445C19.9505 12.2547 19.9469 12.1638 19.9434 12.0725C19.9434 12.0489 19.941 12.0249 19.9402 12.0014C19.9368 11.9245 19.9329 11.8472 19.9284 11.7693C19.9284 11.7502 19.9284 11.7319 19.9252 11.7113C19.9197 11.6178 19.9136 11.5235 19.9071 11.4284L19.9023 11.3622C19.8964 11.2828 19.8905 11.2031 19.8838 11.1226C19.8838 11.0994 19.8802 11.0762 19.8783 11.053C19.87 10.9557 19.8609 10.8573 19.8514 10.7585C19.8514 10.7398 19.8475 10.7211 19.8459 10.702C19.8376 10.6178 19.8285 10.5328 19.8194 10.4471C19.8167 10.4213 19.8139 10.3959 19.8108 10.37C19.7997 10.2682 19.7879 10.1661 19.7752 10.0624C19.7752 10.0497 19.7717 10.037 19.7701 10.025C19.7588 9.93217 19.7468 9.83886 19.7342 9.74505C19.7302 9.71736 19.7267 9.68966 19.7227 9.66197C19.708 9.55569 19.6929 9.44852 19.6773 9.34049C18.0983 -1.31572 6.90876 0.413656 6.90876 0.413656L7.26719 2.70328L0.5 9.48083L0.795667 12.0979L3.35917 13.5949C3.47345 13.3195 3.62017 13.0573 3.79655 12.8131C5.45055 11.0044 8.65947 9.5845 9.57805 9.28997C9.76201 9.23121 9.86662 9.20165 9.86662 9.20165C5.47266 14.593 5.97241 20.7695 6.16821 22.2418C5.96452 22.2792 5.80701 22.5124 5.80701 22.7968C5.80701 23.1067 5.99373 23.3582 6.22387 23.3582H7.63668C5.28699 24.2906 3.42185 26.0665 2.44848 28.2982C2.44734 28.3012 2.44602 28.3042 2.44454 28.3072C2.37269 28.4728 2.30585 28.6409 2.24401 28.8113V28.8165C2.22743 28.8629 2.21124 28.9093 2.19545 28.9561C2.18953 28.9729 2.18361 28.9898 2.17808 29.007C2.16387 29.0489 2.15071 29.0912 2.13861 29.1339C2.1315 29.1556 2.12479 29.1777 2.11808 29.1994C2.10545 29.2394 2.09321 29.2798 2.08137 29.3202L2.06005 29.3951C2.049 29.4325 2.03795 29.4726 2.02768 29.5115C2.02018 29.5392 2.01308 29.5665 2.00597 29.5942C1.9965 29.6316 1.98663 29.669 1.97755 29.7065C1.96847 29.7439 1.95978 29.7813 1.9511 29.821C1.94241 29.8606 1.93136 29.9071 1.92189 29.9505H1.35858C1.25026 29.9482 1.14255 29.9665 1.04178 30.0042C0.941006 30.0419 0.8492 30.0984 0.771747 30.1702C0.694294 30.242 0.63275 30.3278 0.590736 30.4225C0.548723 30.5172 0.527081 30.6189 0.527081 30.7216C0.527081 30.8243 0.548723 30.926 0.590736 31.0207C0.63275 31.1154 0.694294 31.2011 0.771747 31.273C0.8492 31.3448 0.941006 31.4012 1.04178 31.439C1.14255 31.4767 1.25026 31.495 1.35858 31.4927H21.3234C21.4318 31.495 21.5395 31.4767 21.6402 31.439C21.741 31.4012 21.8328 31.3448 21.9103 31.273C21.9877 31.2011 22.0493 31.1154 22.0913 31.0207C22.1333 30.926 22.1549 30.8243 22.1549 30.7216C22.1549 30.6189 22.1333 30.5172 22.0913 30.4225C22.0493 30.3278 21.9877 30.242 21.9103 30.1702C21.8328 30.0984 21.741 30.0419 21.6402 30.0042C21.5395 29.9665 21.4318 29.9482 21.3234 29.9505L21.3163 29.9437Z" fill="#595653"/>
<path d="M44.7035 29.9437H44.1406C44.1406 29.9377 44.1378 29.9318 44.1367 29.9261L44.1213 29.8573C44.1114 29.812 44.1007 29.7671 44.0897 29.7226C44.085 29.7016 44.0798 29.6806 44.0747 29.6597C44.0601 29.6009 44.0447 29.5422 44.0289 29.4834L44.0242 29.4666C44.0068 29.4029 43.9886 29.3396 43.9697 29.2765L43.9507 29.2155C43.9377 29.172 43.9239 29.129 43.9113 29.086C43.9038 29.0624 43.8959 29.0392 43.8884 29.016C43.8746 28.9744 43.8603 28.9329 43.8457 28.8917C43.8382 28.87 43.8303 28.8479 43.8228 28.8266C43.8044 28.775 43.7855 28.7237 43.766 28.6728C43.7617 28.6619 43.7581 28.6515 43.7538 28.6406C43.7309 28.5807 43.7068 28.5212 43.6823 28.4617C43.6736 28.44 43.6645 28.4187 43.6555 28.3974C43.6389 28.3599 43.6223 28.3188 43.6053 28.2798L43.5734 28.2076C43.5568 28.1702 43.5398 28.1328 43.5224 28.0953C43.5118 28.0721 43.5007 28.0486 43.4897 28.0254C43.4695 27.9823 43.4502 27.9397 43.4277 27.8974C43.4194 27.8813 43.4119 27.8648 43.4036 27.8483C43.3756 27.7926 43.3468 27.7361 43.3176 27.6822L43.2781 27.6122L43.2224 27.5108L43.179 27.4359C43.1608 27.4045 43.1427 27.373 43.1241 27.3416C43.1095 27.3162 43.0945 27.2907 43.0795 27.2668C43.059 27.2327 43.0401 27.1994 43.0176 27.1657L42.9607 27.0744C42.9339 27.0325 42.907 26.9902 42.8794 26.9487C42.862 26.9225 42.8447 26.8966 42.8269 26.8708C42.8091 26.845 42.7898 26.8154 42.7708 26.7881C42.7519 26.7608 42.7314 26.7335 42.714 26.7065C42.6966 26.6796 42.6777 26.6553 42.6591 26.6317C42.6406 26.6081 42.6196 26.5767 42.5995 26.5493L42.5439 26.4745C42.5044 26.4247 42.4681 26.3749 42.4294 26.3248L42.3753 26.2563C42.3524 26.2275 42.3287 26.199 42.3054 26.1706L42.2533 26.1077C42.2292 26.0789 42.2048 26.0505 42.1803 26.0217L42.129 25.9625L42.0524 25.8757L42.007 25.8256C41.9126 25.7219 41.8159 25.6197 41.7169 25.5202L41.6734 25.4764L41.5826 25.3877L41.538 25.345C41.5065 25.3147 41.4749 25.2848 41.4429 25.2552L41.4101 25.2253C41.2984 25.1224 41.1835 25.0221 41.0667 24.9259L41.0347 24.8993C40.9987 24.8694 40.9624 24.8398 40.9258 24.8106L40.8895 24.7814C40.85 24.7515 40.8141 24.7219 40.7758 24.6923L40.7564 24.6777C40.6273 24.5789 40.4951 24.4828 40.3617 24.3903L40.3431 24.3772C40.3009 24.3484 40.2586 24.32 40.216 24.2919L40.188 24.2736C40.1446 24.2447 40.1007 24.2167 40.0569 24.1886L40.0494 24.1841C39.9042 24.0921 39.7561 24.0039 39.6053 23.9195L39.5994 23.9158C39.5517 23.8892 39.5039 23.8634 39.4561 23.8376L39.4352 23.8263C39.181 23.6904 38.9199 23.5656 38.652 23.4521L38.6354 23.445C38.5648 23.415 38.4937 23.3862 38.4219 23.3578H39.8347C40.0648 23.3578 40.2515 23.1067 40.2515 22.7964C40.2515 22.4862 40.0648 22.2351 39.8347 22.2351H39.4139C39.4399 22.1722 39.4688 22.1011 39.4999 22.021C39.8978 21.786 40.5981 21.2852 41.2929 20.3653L41.2984 20.3582C41.3511 20.2894 41.4028 20.2181 41.4536 20.1445L41.4638 20.1299C41.5143 20.0577 41.5649 19.9832 41.6146 19.9054L41.628 19.8848C41.6517 19.8474 41.6754 19.81 41.6991 19.7725C41.6991 19.7725 41.6991 19.7695 41.7019 19.7677C41.7263 19.7302 41.7504 19.6891 41.7745 19.649L41.7899 19.6232C41.8104 19.5888 41.8313 19.5536 41.8515 19.5181C41.8554 19.5117 41.8594 19.5053 41.8629 19.4986C41.8862 19.4582 41.9095 19.417 41.9324 19.3755L41.9482 19.3466C41.9671 19.3122 41.9857 19.2774 42.0042 19.2422C42.0098 19.2325 42.0153 19.2224 42.0204 19.2123C42.0425 19.17 42.0646 19.1273 42.0867 19.0839L42.1021 19.0536C42.1195 19.0184 42.1373 18.9825 42.1546 18.9466L42.1736 18.9092C42.1949 18.865 42.2158 18.8201 42.2367 18.7748L42.2498 18.746C42.2671 18.7086 42.2841 18.6711 42.3011 18.6337L42.3212 18.5888C42.341 18.5435 42.3607 18.4979 42.3796 18.4518C42.3832 18.4436 42.3867 18.435 42.3899 18.4268C42.4077 18.3845 42.425 18.3414 42.4424 18.298L42.4621 18.2486C42.4783 18.2074 42.4945 18.1659 42.5103 18.1244L42.5221 18.0929C42.5407 18.0435 42.5589 17.993 42.577 17.9432L42.596 17.8901C42.6102 17.8504 42.624 17.81 42.6378 17.7696C42.6429 17.7546 42.6481 17.7396 42.6528 17.7247C42.6702 17.673 42.6875 17.6203 42.7045 17.5675C42.71 17.5492 42.716 17.5301 42.7215 17.5128L42.761 17.3897C42.7661 17.3718 42.7716 17.3523 42.7768 17.3362C42.7929 17.2819 42.8091 17.2266 42.8245 17.1708C42.8296 17.1532 42.8344 17.1352 42.8391 17.1173C42.851 17.0742 42.8628 17.0312 42.8743 16.9874C42.8794 16.9676 42.8845 16.9477 42.89 16.9279C42.9047 16.8703 42.9193 16.8123 42.9335 16.7535L42.9453 16.7045C42.9564 16.6577 42.9674 16.6105 42.9781 16.563L42.9923 16.4994C43.0057 16.4384 43.0191 16.3774 43.0318 16.3153C43.0345 16.3033 43.0369 16.2909 43.0393 16.2778C43.0503 16.2243 43.061 16.1701 43.0712 16.1158C43.0756 16.0937 43.0795 16.0716 43.0839 16.0496C43.0941 15.9938 43.104 15.9373 43.1139 15.8815C43.1158 15.8695 43.1182 15.8579 43.1202 15.8463C43.1312 15.7805 43.142 15.7141 43.1526 15.6472C43.1561 15.6248 43.1597 15.6023 43.1628 15.5795C43.1711 15.5252 43.179 15.4706 43.1869 15.4152L43.194 15.3643C43.2035 15.2955 43.2126 15.2262 43.2212 15.1559C43.224 15.1338 43.2264 15.1117 43.2291 15.0892C43.236 15.0334 43.2423 14.9772 43.2481 14.9208C43.2505 14.9006 43.2528 14.8808 43.2548 14.8606C43.2624 14.7882 43.2695 14.7153 43.2761 14.6417C43.2761 14.6211 43.2797 14.6005 43.2812 14.5795C43.2864 14.5204 43.2915 14.4609 43.2959 14.401C43.2959 14.3789 43.2994 14.3569 43.301 14.3348C43.3065 14.2584 43.3116 14.1816 43.3164 14.1042C43.3164 14.0867 43.3164 14.0668 43.3191 14.0511C43.3227 13.9867 43.3262 13.922 43.329 13.8569C43.329 13.8333 43.329 13.8097 43.3322 13.7861C43.3353 13.7057 43.3385 13.6248 43.3409 13.5429C43.3409 13.5316 43.3409 13.52 43.3409 13.5084C43.343 13.4356 43.3445 13.362 43.3456 13.2876C43.3456 13.2633 43.3456 13.239 43.3456 13.2147C43.3456 13.1348 43.3456 13.0545 43.3456 12.9737V12.9549C43.3456 12.8689 43.3456 12.7817 43.3456 12.693V12.6181C43.3456 12.5433 43.3424 12.4647 43.3405 12.3868V12.3445C43.3377 12.2547 43.3341 12.1638 43.3306 12.0725C43.3306 12.0489 43.3282 12.0249 43.3274 12.0014C43.324 11.9245 43.3201 11.8472 43.3156 11.7693C43.3156 11.7502 43.3156 11.7319 43.3124 11.7113C43.3069 11.6178 43.3009 11.5235 43.2943 11.4284L43.2895 11.3622C43.2836 11.2828 43.2777 11.2031 43.271 11.1226C43.271 11.0994 43.2674 11.0762 43.2655 11.053C43.2572 10.9557 43.2481 10.8573 43.2386 10.7585C43.2386 10.7398 43.2347 10.7211 43.2331 10.702C43.2248 10.6178 43.2157 10.5328 43.2066 10.4471C43.2039 10.4213 43.2011 10.3959 43.198 10.37C43.1869 10.2682 43.1751 10.1661 43.1624 10.0624C43.1624 10.0497 43.1589 10.037 43.1573 10.025C43.146 9.93217 43.134 9.83886 43.1214 9.74505C43.1174 9.71736 43.1139 9.68966 43.1099 9.66197C43.0952 9.55569 43.0801 9.44852 43.0645 9.34049C41.4855 -1.31572 30.296 0.413656 30.296 0.413656L30.6544 2.70328L23.8872 9.48083L24.1829 12.0979L26.7464 13.5949C26.8607 13.3195 27.0074 13.0573 27.1838 12.8131C28.8378 11.0044 32.0467 9.5845 32.9653 9.28997C33.1492 9.23121 33.2538 9.20165 33.2538 9.20165C28.8599 14.593 29.3596 20.7695 29.5554 22.2418C29.3517 22.2792 29.1942 22.5124 29.1942 22.7968C29.1942 23.1067 29.3809 23.3582 29.6111 23.3582H31.0239C28.6742 24.2906 26.8091 26.0665 25.8357 28.2982C25.8345 28.3012 25.8332 28.3042 25.8317 28.3072C25.7599 28.4728 25.6931 28.6409 25.6312 28.8113V28.8165C25.6146 28.8629 25.5984 28.9093 25.5827 28.9561C25.5767 28.9729 25.5708 28.9898 25.5653 29.007C25.5511 29.0489 25.5379 29.0912 25.5258 29.1339C25.5187 29.1556 25.512 29.1777 25.5053 29.1994C25.4926 29.2394 25.4804 29.2798 25.4686 29.3202L25.4473 29.3951C25.4362 29.4325 25.4251 29.4726 25.4149 29.5115C25.4074 29.5392 25.4003 29.5665 25.3932 29.5942C25.3837 29.6316 25.3738 29.669 25.3647 29.7065C25.3557 29.7439 25.347 29.7813 25.3383 29.821C25.3296 29.8606 25.3186 29.9071 25.3091 29.9505H24.7458C24.6375 29.9482 24.5298 29.9665 24.429 30.0042C24.3282 30.0419 24.2364 30.0984 24.1589 30.1702C24.0815 30.242 24.02 30.3278 23.9779 30.4225C23.9359 30.5172 23.9143 30.6189 23.9143 30.7216C23.9143 30.8243 23.9359 30.926 23.9779 31.0207C24.02 31.1154 24.0815 31.2011 24.1589 31.273C24.2364 31.3448 24.3282 31.4012 24.429 31.439C24.5298 31.4767 24.6375 31.495 24.7458 31.4927H44.7106C44.819 31.495 44.9267 31.4767 45.0274 31.439C45.1282 31.4012 45.22 31.3448 45.2975 31.273C45.3749 31.2011 45.4365 31.1154 45.4785 31.0207C45.5205 30.926 45.5421 30.8243 45.5421 30.7216C45.5421 30.6189 45.5205 30.5172 45.4785 30.4225C45.4365 30.3278 45.3749 30.242 45.2975 30.1702C45.22 30.0984 45.1282 30.0419 45.0274 30.0042C44.9267 29.9665 44.819 29.9482 44.7106 29.9505L44.7035 29.9437Z" fill="#595653"/>
<path d="M68.0912 29.9437H67.5283C67.5283 29.9377 67.5255 29.9318 67.5244 29.9261L67.509 29.8573C67.4991 29.812 67.4884 29.7671 67.4774 29.7226C67.4726 29.7016 67.4675 29.6806 67.4624 29.6597C67.4478 29.6009 67.4324 29.5422 67.4166 29.4834L67.4118 29.4666C67.3945 29.4029 67.3763 29.3396 67.3574 29.2765L67.3384 29.2155C67.3254 29.172 67.3116 29.129 67.299 29.086C67.2915 29.0624 67.2836 29.0392 67.2761 29.016C67.2622 28.9744 67.248 28.9329 67.2334 28.8917C67.2259 28.87 67.218 28.8479 67.2105 28.8266C67.1921 28.775 67.1732 28.7237 67.1537 28.6728C67.1493 28.6619 67.1458 28.6515 67.1414 28.6406C67.1186 28.5807 67.0945 28.5212 67.07 28.4617C67.0613 28.44 67.0522 28.4187 67.0432 28.3974C67.0266 28.3599 67.01 28.3188 66.993 28.2798L66.9611 28.2076C66.9445 28.1702 66.9275 28.1328 66.9101 28.0953C66.8995 28.0721 66.8884 28.0486 66.8774 28.0254C66.8572 27.9823 66.8379 27.9397 66.8154 27.8974C66.8071 27.8813 66.7996 27.8648 66.7913 27.8483C66.7633 27.7926 66.7345 27.7361 66.7052 27.6822L66.6658 27.6122L66.6101 27.5108L66.5667 27.4359C66.5485 27.4045 66.5304 27.373 66.5118 27.3416C66.4972 27.3162 66.4822 27.2907 66.4672 27.2668C66.4467 27.2327 66.4277 27.1994 66.4052 27.1657L66.3484 27.0744C66.3216 27.0325 66.2947 26.9902 66.2671 26.9487C66.2497 26.9225 66.2323 26.8966 66.2146 26.8708C66.1968 26.845 66.1775 26.8154 66.1585 26.7881C66.1396 26.7608 66.1191 26.7335 66.1017 26.7065C66.0843 26.6796 66.0654 26.6553 66.0468 26.6317C66.0283 26.6081 66.0073 26.5767 65.9872 26.5493L65.9315 26.4745C65.8921 26.4247 65.8557 26.3749 65.8171 26.3248L65.763 26.2563C65.7401 26.2275 65.7164 26.199 65.6931 26.1706L65.641 26.1077C65.6169 26.0789 65.5925 26.0505 65.568 26.0217L65.5167 25.9625L65.4401 25.8757L65.3947 25.8256C65.3003 25.7219 65.2036 25.6197 65.1045 25.5202L65.0611 25.4764L64.9703 25.3877L64.9257 25.345C64.8941 25.3147 64.8626 25.2848 64.8306 25.2552L64.7978 25.2253C64.6861 25.1224 64.5712 25.0221 64.4544 24.9259L64.4224 24.8993C64.3864 24.8694 64.35 24.8398 64.3135 24.8106L64.2771 24.7814C64.2377 24.7515 64.2017 24.7219 64.1635 24.6923L64.1441 24.6777C64.015 24.5789 63.8828 24.4828 63.7494 24.3903L63.7308 24.3772C63.6886 24.3484 63.6463 24.32 63.6037 24.2919L63.5757 24.2736C63.5323 24.2447 63.4884 24.2167 63.4446 24.1886L63.4371 24.1841C63.2919 24.0921 63.1438 24.0039 62.993 23.9195L62.9871 23.9158C62.9393 23.8892 62.8916 23.8634 62.8438 23.8376L62.8229 23.8263C62.5687 23.6904 62.3076 23.5656 62.0397 23.4521L62.0231 23.445C61.9525 23.415 61.8814 23.3862 61.8096 23.3578H63.2224C63.4525 23.3578 63.6392 23.1067 63.6392 22.7964C63.6392 22.4862 63.4525 22.2351 63.2224 22.2351H62.8016C62.8276 22.1722 62.8564 22.1011 62.8876 22.021C63.2855 21.786 63.9858 21.2852 64.6806 20.3653L64.6861 20.3582C64.7387 20.2894 64.7905 20.2181 64.8412 20.1445L64.8515 20.1299C64.902 20.0577 64.9526 19.9832 65.0023 19.9054L65.0157 19.8848C65.0394 19.8474 65.0631 19.81 65.0868 19.7725C65.0868 19.7725 65.0868 19.7695 65.0895 19.7677C65.114 19.7302 65.1381 19.6891 65.1622 19.649L65.1776 19.6232C65.1981 19.5888 65.219 19.5536 65.2392 19.5181C65.2431 19.5117 65.247 19.5053 65.2506 19.4986C65.2739 19.4582 65.2972 19.417 65.3201 19.3755L65.3359 19.3466C65.3548 19.3122 65.3734 19.2774 65.3919 19.2422C65.3974 19.2325 65.403 19.2224 65.4081 19.2123C65.4302 19.17 65.4523 19.1273 65.4744 19.0839L65.4898 19.0536C65.5072 19.0184 65.525 18.9825 65.5423 18.9466L65.5613 18.9092C65.5826 18.865 65.6035 18.8201 65.6244 18.7748L65.6375 18.746C65.6548 18.7086 65.6718 18.6711 65.6888 18.6337L65.7089 18.5888C65.7286 18.5435 65.7484 18.4979 65.7673 18.4518C65.7709 18.4436 65.7744 18.435 65.7776 18.4268C65.7954 18.3845 65.8127 18.3414 65.8301 18.298L65.8498 18.2486C65.866 18.2074 65.8822 18.1659 65.898 18.1244L65.9098 18.0929C65.9284 18.0435 65.9465 17.993 65.9647 17.9432L65.9837 17.8901C65.9979 17.8504 66.0117 17.81 66.0255 17.7696C66.0306 17.7546 66.0358 17.7396 66.0405 17.7247C66.0579 17.673 66.0752 17.6203 66.0922 17.5675C66.0977 17.5492 66.1036 17.5301 66.1092 17.5128L66.1487 17.3897C66.1538 17.3718 66.1593 17.3523 66.1644 17.3362C66.1806 17.2819 66.1968 17.2266 66.2122 17.1708C66.2173 17.1532 66.2221 17.1352 66.2268 17.1173C66.2387 17.0742 66.2505 17.0312 66.2619 16.9874C66.2671 16.9676 66.2722 16.9477 66.2777 16.9279C66.2923 16.8703 66.3069 16.8123 66.3212 16.7535L66.333 16.7045C66.3441 16.6577 66.3551 16.6105 66.3658 16.563L66.38 16.4994C66.3934 16.4384 66.4068 16.3774 66.4194 16.3153C66.4222 16.3033 66.4246 16.2909 66.427 16.2778C66.438 16.2243 66.4487 16.1701 66.4589 16.1158C66.4633 16.0937 66.4672 16.0716 66.4716 16.0496C66.4818 15.9938 66.4917 15.9373 66.5016 15.8815C66.5035 15.8695 66.5059 15.8579 66.5079 15.8463C66.5189 15.7805 66.5297 15.7141 66.5402 15.6472C66.5438 15.6248 66.5473 15.6023 66.5505 15.5795C66.5588 15.5252 66.5667 15.4706 66.5746 15.4152L66.5817 15.3643C66.5912 15.2955 66.6002 15.2262 66.6089 15.1559C66.6117 15.1338 66.6141 15.1117 66.6168 15.0892C66.6237 15.0334 66.63 14.9772 66.6358 14.9208C66.6381 14.9006 66.6405 14.8808 66.6425 14.8606C66.6501 14.7882 66.6572 14.7153 66.6638 14.6417C66.6638 14.6211 66.6674 14.6005 66.6689 14.5795C66.6741 14.5204 66.6792 14.4609 66.6835 14.401C66.6835 14.3789 66.6871 14.3569 66.6887 14.3348C66.6942 14.2584 66.6993 14.1816 66.7041 14.1042C66.7041 14.0867 66.7041 14.0668 66.7068 14.0511C66.7104 13.9867 66.7139 13.922 66.7167 13.8569C66.7167 13.8333 66.7167 13.8097 66.7199 13.7861C66.723 13.7057 66.7262 13.6248 66.7285 13.5429C66.7285 13.5316 66.7285 13.52 66.7285 13.5084C66.7307 13.4356 66.7322 13.362 66.7333 13.2876C66.7333 13.2633 66.7333 13.239 66.7333 13.2147C66.7333 13.1348 66.7333 13.0545 66.7333 12.9737V12.9549C66.7333 12.8689 66.7333 12.7817 66.7333 12.693V12.6181C66.7333 12.5433 66.7301 12.4647 66.7281 12.3868V12.3445C66.7254 12.2547 66.7218 12.1638 66.7183 12.0725C66.7183 12.0489 66.7159 12.0249 66.7151 12.0014C66.7117 11.9245 66.7078 11.8472 66.7033 11.7693C66.7033 11.7502 66.7033 11.7319 66.7001 11.7113C66.6946 11.6178 66.6885 11.5235 66.682 11.4284L66.6772 11.3622C66.6713 11.2828 66.6654 11.2031 66.6587 11.1226C66.6587 11.0994 66.6551 11.0762 66.6531 11.053C66.6449 10.9557 66.6358 10.8573 66.6263 10.7585C66.6263 10.7398 66.6224 10.7211 66.6208 10.702C66.6125 10.6178 66.6034 10.5328 66.5943 10.4471C66.5916 10.4213 66.5888 10.3959 66.5856 10.37C66.5746 10.2682 66.5627 10.1661 66.5501 10.0624C66.5501 10.0497 66.5466 10.037 66.545 10.025C66.5337 9.93217 66.5217 9.83886 66.5091 9.74505C66.5051 9.71736 66.5016 9.68966 66.4976 9.66197C66.4829 9.55569 66.4677 9.44852 66.4522 9.34049C64.8732 -1.31572 53.6836 0.413656 53.6836 0.413656L54.0421 2.70328L47.2749 9.48083L47.5706 12.0979L50.1341 13.5949C50.2483 13.3195 50.3951 13.0573 50.5714 12.8131C52.2254 11.0044 55.4344 9.5845 56.3529 9.28997C56.5369 9.23121 56.6415 9.20165 56.6415 9.20165C52.2476 14.593 52.7473 20.7695 52.9431 22.2418C52.7394 22.2792 52.5819 22.5124 52.5819 22.7968C52.5819 23.1067 52.7686 23.3582 52.9988 23.3582H54.4116C52.0619 24.2906 50.1967 26.0665 49.2234 28.2982C49.2222 28.3012 49.2209 28.3042 49.2194 28.3072C49.1476 28.4728 49.0807 28.6409 49.0189 28.8113V28.8165C49.0023 28.8629 48.9861 28.9093 48.9703 28.9561C48.9644 28.9729 48.9585 28.9898 48.953 29.007C48.9388 29.0489 48.9256 29.0912 48.9135 29.1339C48.9064 29.1556 48.8997 29.1777 48.893 29.1994C48.8803 29.2394 48.8681 29.2798 48.8563 29.3202L48.8349 29.3951C48.8239 29.4325 48.8128 29.4726 48.8026 29.5115C48.7951 29.5392 48.788 29.5665 48.7809 29.5942C48.7714 29.6316 48.7615 29.669 48.7524 29.7065C48.7434 29.7439 48.7347 29.7813 48.726 29.821C48.7173 29.8606 48.7063 29.9071 48.6968 29.9505H48.1335C48.0251 29.9482 47.9174 29.9665 47.8167 30.0042C47.7159 30.0419 47.6241 30.0984 47.5466 30.1702C47.4692 30.242 47.4076 30.3278 47.3656 30.4225C47.3236 30.5172 47.302 30.6189 47.302 30.7216C47.302 30.8243 47.3236 30.926 47.3656 31.0207C47.4076 31.1154 47.4692 31.2011 47.5466 31.273C47.6241 31.3448 47.7159 31.4012 47.8167 31.439C47.9174 31.4767 48.0251 31.495 48.1335 31.4927H68.0983C68.2066 31.495 68.3144 31.4767 68.4151 31.439C68.5159 31.4012 68.6077 31.3448 68.6852 31.273C68.7626 31.2011 68.8242 31.1154 68.8662 31.0207C68.9082 30.926 68.9298 30.8243 68.9298 30.7216C68.9298 30.6189 68.9082 30.5172 68.8662 30.4225C68.8242 30.3278 68.7626 30.242 68.6852 30.1702C68.6077 30.0984 68.5159 30.0419 68.4151 30.0042C68.3144 29.9665 68.2066 29.9482 68.0983 29.9505L68.0912 29.9437Z" fill="#595653"/>
<path d="M91.4784 29.9437H90.9155C90.9155 29.9377 90.9127 29.9318 90.9116 29.9261L90.8962 29.8573C90.8863 29.812 90.8756 29.7671 90.8646 29.7226C90.8598 29.7016 90.8547 29.6806 90.8496 29.6597C90.835 29.6009 90.8196 29.5422 90.8038 29.4834L90.7991 29.4666C90.7817 29.4029 90.7635 29.3396 90.7446 29.2765L90.7256 29.2155C90.7126 29.172 90.6988 29.129 90.6862 29.086C90.6787 29.0624 90.6708 29.0392 90.6633 29.016C90.6494 28.9744 90.6352 28.9329 90.6206 28.8917C90.6131 28.87 90.6052 28.8479 90.5977 28.8266C90.5793 28.775 90.5604 28.7237 90.5409 28.6728C90.5365 28.6619 90.533 28.6515 90.5287 28.6406C90.5058 28.5807 90.4817 28.5212 90.4572 28.4617C90.4485 28.44 90.4394 28.4187 90.4304 28.3974C90.4138 28.3599 90.3972 28.3188 90.3802 28.2798L90.3483 28.2076C90.3317 28.1702 90.3147 28.1328 90.2973 28.0953C90.2867 28.0721 90.2756 28.0486 90.2646 28.0254C90.2444 27.9823 90.2251 27.9397 90.2026 27.8974C90.1943 27.8813 90.1868 27.8648 90.1785 27.8483C90.1505 27.7926 90.1217 27.7361 90.0925 27.6822L90.053 27.6122L89.9973 27.5108L89.9539 27.4359C89.9357 27.4045 89.9176 27.373 89.899 27.3416C89.8844 27.3162 89.8694 27.2907 89.8544 27.2668C89.8339 27.2327 89.8149 27.1994 89.7924 27.1657L89.7356 27.0744C89.7088 27.0325 89.6819 26.9902 89.6543 26.9487C89.6369 26.9225 89.6195 26.8966 89.6018 26.8708C89.584 26.845 89.5647 26.8154 89.5457 26.7881C89.5268 26.7608 89.5063 26.7335 89.4889 26.7065C89.4715 26.6796 89.4526 26.6553 89.434 26.6317C89.4155 26.6081 89.3945 26.5767 89.3744 26.5493L89.3187 26.4745C89.2793 26.4247 89.243 26.3749 89.2043 26.3248L89.1502 26.2563C89.1273 26.2275 89.1036 26.199 89.0803 26.1706L89.0282 26.1077C89.0041 26.0789 88.9797 26.0505 88.9552 26.0217L88.9039 25.9625L88.8273 25.8757L88.7819 25.8256C88.6875 25.7219 88.5908 25.6197 88.4917 25.5202L88.4483 25.4764L88.3575 25.3877L88.3129 25.345C88.2813 25.3147 88.2498 25.2848 88.2178 25.2552L88.185 25.2253C88.0733 25.1224 87.9584 25.0221 87.8416 24.9259L87.8096 24.8993C87.7736 24.8694 87.7372 24.8398 87.7007 24.8106L87.6644 24.7814C87.6249 24.7515 87.589 24.7219 87.5507 24.6923L87.5313 24.6777C87.4022 24.5789 87.27 24.4828 87.1366 24.3903L87.118 24.3772C87.0758 24.3484 87.0335 24.32 86.9909 24.2919L86.9629 24.2736C86.9195 24.2447 86.8756 24.2167 86.8318 24.1886L86.8243 24.1841C86.6791 24.0921 86.531 24.0039 86.3802 23.9195L86.3743 23.9158C86.3265 23.8892 86.2788 23.8634 86.231 23.8376L86.2101 23.8263C85.9559 23.6904 85.6948 23.5656 85.4269 23.4521L85.4103 23.445C85.3397 23.415 85.2686 23.3862 85.1968 23.3578H86.6096C86.8397 23.3578 87.0264 23.1067 87.0264 22.7964C87.0264 22.4862 86.8397 22.2351 86.6096 22.2351H86.1888C86.2148 22.1722 86.2436 22.1011 86.2748 22.021C86.6727 21.786 87.373 21.2852 88.0678 20.3653L88.0733 20.3582C88.1259 20.2894 88.1777 20.2181 88.2284 20.1445L88.2387 20.1299C88.2892 20.0577 88.3398 19.9832 88.3895 19.9054L88.4029 19.8848C88.4266 19.8474 88.4503 19.81 88.474 19.7725C88.474 19.7725 88.474 19.7695 88.4767 19.7677C88.5012 19.7302 88.5253 19.6891 88.5494 19.649L88.5648 19.6232C88.5853 19.5888 88.6062 19.5536 88.6264 19.5181C88.6303 19.5117 88.6342 19.5053 88.6378 19.4986C88.6611 19.4582 88.6844 19.417 88.7073 19.3755L88.7231 19.3466C88.742 19.3122 88.7606 19.2774 88.7791 19.2422C88.7847 19.2325 88.7902 19.2224 88.7953 19.2123C88.8174 19.17 88.8395 19.1273 88.8616 19.0839L88.877 19.0536C88.8944 19.0184 88.9122 18.9825 88.9295 18.9466L88.9485 18.9092C88.9698 18.865 88.9907 18.8201 89.0116 18.7748L89.0247 18.746C89.042 18.7086 89.059 18.6711 89.076 18.6337L89.0961 18.5888C89.1158 18.5435 89.1356 18.4979 89.1545 18.4518C89.1581 18.4436 89.1616 18.435 89.1648 18.4268C89.1826 18.3845 89.1999 18.3414 89.2173 18.298L89.237 18.2486C89.2532 18.2074 89.2694 18.1659 89.2852 18.1244L89.297 18.0929C89.3156 18.0435 89.3337 17.993 89.3519 17.9432L89.3708 17.8901C89.3851 17.8504 89.3989 17.81 89.4127 17.7696C89.4178 17.7546 89.423 17.7396 89.4277 17.7247C89.4451 17.673 89.4624 17.6203 89.4794 17.5675C89.4849 17.5492 89.4909 17.5301 89.4964 17.5128L89.5359 17.3897C89.541 17.3718 89.5465 17.3523 89.5517 17.3362C89.5678 17.2819 89.584 17.2266 89.5994 17.1708C89.6045 17.1532 89.6093 17.1352 89.614 17.1173C89.6259 17.0742 89.6377 17.0312 89.6491 16.9874C89.6543 16.9676 89.6594 16.9477 89.6649 16.9279C89.6795 16.8703 89.6941 16.8123 89.7084 16.7535L89.7202 16.7045C89.7313 16.6577 89.7423 16.6105 89.753 16.563L89.7672 16.4994C89.7806 16.4384 89.794 16.3774 89.8067 16.3153C89.8094 16.3033 89.8118 16.2909 89.8142 16.2778C89.8252 16.2243 89.8359 16.1701 89.8461 16.1158C89.8505 16.0937 89.8544 16.0716 89.8588 16.0496C89.869 15.9938 89.8789 15.9373 89.8888 15.8815C89.8907 15.8695 89.8931 15.8579 89.8951 15.8463C89.9061 15.7805 89.9169 15.7141 89.9275 15.6472C89.931 15.6248 89.9346 15.6023 89.9377 15.5795C89.946 15.5252 89.9539 15.4706 89.9618 15.4152L89.9689 15.3643C89.9784 15.2955 89.9875 15.2262 89.9961 15.1559C89.9989 15.1338 90.0013 15.1117 90.004 15.0892C90.0109 15.0334 90.0172 14.9772 90.023 14.9208C90.0253 14.9006 90.0277 14.8808 90.0297 14.8606C90.0373 14.7882 90.0444 14.7153 90.051 14.6417C90.051 14.6211 90.0546 14.6005 90.0561 14.5795C90.0613 14.5204 90.0664 14.4609 90.0707 14.401C90.0707 14.3789 90.0743 14.3569 90.0759 14.3348C90.0814 14.2584 90.0865 14.1816 90.0913 14.1042C90.0913 14.0867 90.0913 14.0668 90.094 14.0511C90.0976 13.9867 90.1011 13.922 90.1039 13.8569C90.1039 13.8333 90.1039 13.8097 90.1071 13.7861C90.1102 13.7057 90.1134 13.6248 90.1157 13.5429C90.1157 13.5316 90.1157 13.52 90.1157 13.5084C90.1179 13.4356 90.1194 13.362 90.1205 13.2876C90.1205 13.2633 90.1205 13.239 90.1205 13.2147C90.1205 13.1348 90.1205 13.0545 90.1205 12.9737V12.9549C90.1205 12.8689 90.1205 12.7817 90.1205 12.693V12.6181C90.1205 12.5433 90.1173 12.4647 90.1153 12.3868V12.3445C90.1126 12.2547 90.109 12.1638 90.1055 12.0725C90.1055 12.0489 90.1031 12.0249 90.1023 12.0014C90.0989 11.9245 90.095 11.8472 90.0905 11.7693C90.0905 11.7502 90.0905 11.7319 90.0873 11.7113C90.0818 11.6178 90.0757 11.5235 90.0692 11.4284L90.0644 11.3622C90.0585 11.2828 90.0526 11.2031 90.0459 11.1226C90.0459 11.0994 90.0423 11.0762 90.0403 11.053C90.0321 10.9557 90.023 10.8573 90.0135 10.7585C90.0135 10.7398 90.0096 10.7211 90.008 10.702C89.9997 10.6178 89.9906 10.5328 89.9815 10.4471C89.9788 10.4213 89.976 10.3959 89.9728 10.37C89.9618 10.2682 89.9499 10.1661 89.9373 10.0624C89.9373 10.0497 89.9338 10.037 89.9322 10.025C89.9209 9.93217 89.9089 9.83886 89.8963 9.74505C89.8923 9.71736 89.8888 9.68966 89.8848 9.66197C89.8701 9.55569 89.8549 9.44852 89.8394 9.34049C88.2604 -1.31572 77.0709 0.413656 77.0709 0.413656L77.4293 2.70328L70.6621 9.48083L70.9578 12.0979L73.5213 13.5949C73.6355 13.3195 73.7823 13.0573 73.9586 12.8131C75.6126 11.0044 78.8216 9.5845 79.7401 9.28997C79.9241 9.23121 80.0287 9.20165 80.0287 9.20165C75.6348 14.593 76.1345 20.7695 76.3303 22.2418C76.1266 22.2792 75.9691 22.5124 75.9691 22.7968C75.9691 23.1067 76.1558 23.3582 76.386 23.3582H77.7988C75.4491 24.2906 73.5839 26.0665 72.6106 28.2982C72.6094 28.3012 72.6081 28.3042 72.6066 28.3072C72.5348 28.4728 72.4679 28.6409 72.4061 28.8113V28.8165C72.3895 28.8629 72.3733 28.9093 72.3575 28.9561C72.3516 28.9729 72.3457 28.9898 72.3402 29.007C72.326 29.0489 72.3128 29.0912 72.3007 29.1339C72.2936 29.1556 72.2869 29.1777 72.2802 29.1994C72.2675 29.2394 72.2553 29.2798 72.2435 29.3202L72.2221 29.3951C72.2111 29.4325 72.2 29.4726 72.1898 29.5115C72.1823 29.5392 72.1752 29.5665 72.1681 29.5942C72.1586 29.6316 72.1487 29.669 72.1396 29.7065C72.1306 29.7439 72.1219 29.7813 72.1132 29.821C72.1045 29.8606 72.0935 29.9071 72.084 29.9505H71.5207C71.4124 29.9482 71.3046 29.9665 71.2039 30.0042C71.1031 30.0419 71.0113 30.0984 70.9338 30.1702C70.8564 30.242 70.7948 30.3278 70.7528 30.4225C70.7108 30.5172 70.6892 30.6189 70.6892 30.7216C70.6892 30.8243 70.7108 30.926 70.7528 31.0207C70.7948 31.1154 70.8564 31.2011 70.9338 31.273C71.0113 31.3448 71.1031 31.4012 71.2039 31.439C71.3046 31.4767 71.4124 31.495 71.5207 31.4927H91.4855C91.5938 31.495 91.7016 31.4767 91.8023 31.439C91.9031 31.4012 91.9949 31.3448 92.0724 31.273C92.1498 31.2011 92.2114 31.1154 92.2534 31.0207C92.2954 30.926 92.317 30.8243 92.317 30.7216C92.317 30.6189 92.2954 30.5172 92.2534 30.4225C92.2114 30.3278 92.1498 30.242 92.0724 30.1702C91.9949 30.0984 91.9031 30.0419 91.8023 30.0042C91.7016 29.9665 91.5938 29.9482 91.4855 29.9505L91.4784 29.9437Z" fill="#595653"/>
</svg>
